{
  "accessors": [
    {
      "bufferView": 2,
      "componentType": 5126,
      "count": 1855,
      "max": [
        0.029918842017650604,
        0.085334911942482,
        0.029918845742940903
      ],
      "min": [
        -0.02991885505616665,
        -0.0645984336733818,
        -0.029918843880295753
      ],
      "type": "VEC3"
    },
    {
      "bufferView": 2,
      "byteOffset": 22260,
      "componentType": 5126,
      "count": 1855,
      "max": [
        0.999966561794281,
        0.9995888471603394,
        0.999966561794281
      ],
      "min": [
        -0.9999666213989258,
        -1.0,
        -0.999966561794281
      ],
      "type": "VEC3"
    },
    {
      "bufferView": 1,
      "componentType": 5126,
      "count": 1855,
      "max": [
        0.9879754781723022,
        0.9920189380645752
      ],
      "min": [
        0.007980823516845703,
        0.007980823516845703
      ],
      "type": "VEC2"
    },
    {
      "bufferView": 0,
      "componentType": 5125,
      "count": 9120,
      "type": "SCALAR"
    }
  ],
  "asset": {
    "extras": {
      "author": "JungleBird (https://sketchfab.com/junglebird)",
      "license": "SKETCHFAB Standard (https://sketchfab.com/licenses)",
      "source": "https://sketchfab.com/3d-models/glass-bottle-0102f732453e4f4c86c947e1ca5ea19d",
      "title": "Glass Bottle"
    },
    "generator": "Sketchfab-16.16.0",
    "version": "2.0"
  },
  "bufferViews": [
    {
      "buffer": 0,
      "byteLength": 36480,
      "name": "floatBufferViews",
      "target": 34963
    },
    {
      "buffer": 0,
      "byteLength": 14840,
      "byteOffset": 36480,
      "byteStride": 8,
      "name": "floatBufferViews",
      "target": 34962
    },
    {
      "buffer": 0,
      "byteLength": 44520,
      "byteOffset": 51320,
      "byteStride": 12,
      "name": "floatBufferViews",
      "target": 34962
    }
  ],
  "buffers": [
    {
      "byteLength": 95840,
      "uri": "scene.bin"
    }
  ],
  "extensionsUsed": [
    "KHR_materials_specular"
  ],
  "materials": [
    {
      "alphaMode": "BLEND",
      "doubleSided": true,
      "extensions": {
        "KHR_materials_specular": {
          "specularColorFactor": [
            1.0,
            1.0,
            1.0
          ],
          "specularFactor": 0.6323828796430617
        }
      },
      "name": "Glass_Simple",
      "pbrMetallicRoughness": {
        "baseColorFactor": [
          0.28178910872065704,
          0.40613688653891683,
          0.5287635162316685,
          0.3276200460801404
        ],
        "roughnessFactor": 0.08990503590106179
      }
    }
  ],
  "meshes": [
    {
      "name": "Object_0",
      "primitives": [
        {
          "attributes": {
            "NORMAL": 1,
            "POSITION": 0,
            "TEXCOORD_0": 2
          },
          "indices": 3,
          "material": 0,
          "mode": 4
        }
      ]
    }
  ],
  "nodes": [
    {
      "children": [
        1
      ],
      "matrix": [
        1.0,
        0.0,
        0.0,
        0.0,
        0.0,
        2.220446049250313e-16,
        -1.0,
        0.0,
        0.0,
        1.0,
        2.220446049250313e-16,
        0.0,
        0.0,
        0.0,
        0.0,
        1.0
      ],
      "name": "Sketchfab_model"
    },
    {
      "children": [
        2
      ],
      "name": "root"
    },
    {
      "children": [
        3
      ],
      "matrix": [
        1.0,
        0.0,
        0.0,
        0.0,
        0.0,
        2.220446049250313e-16,
        1.0,
        0.0,
        0.0,
        -1.0,
        2.220446049250313e-16,
        0.0,
        0.0,
        0.0,
        0.0,
        1.0
      ],
      "name": "GLTF_SceneRootNode"
    },
    {
      "children": [
        4
      ],
      "name": "Plane_0"
    },
    {
      "mesh": 0,
      "name": "Object_4"
    }
  ],
  "scene": 0,
  "scenes": [
    {
      "name": "Sketchfab_Scene",
      "nodes": [
        0
      ]
    }
  ]
}
